<svg width="37" height="36" viewBox="0 0 37 36" fill="none" xmlns="http://www.w3.org/2000/svg">
<path fill-rule="evenodd" clip-rule="evenodd" d="M17.51 22.5309C18.095 23.1159 19.04 23.1159 19.625 22.5309L29.165 12.9909C29.75 12.4059 29.75 11.4609 29.165 10.8759L21.74 3.45092C21.17 2.85092 20.225 2.85092 19.64 3.43592L10.085 12.9909C9.5 13.5759 9.5 14.5209 10.085 15.1059L17.51 22.5309ZM26.48 19.5009H27.5L32 24.0009V30.0009C32 31.6659 30.65 33.0009 29 33.0009H7.985C6.335 33.0009 5 31.6509 5 30.0009V24.0009L9.5 19.5009H10.745L13.745 22.5009H10.67L8 25.5009H29L26.345 22.5009H23.48L26.48 19.5009ZM8 30.0009H29V28.5009H8V30.0009ZM26 11.9259L20.69 6.61592L13.265 14.0409L18.575 19.3509L26 11.9259Z" fill="white" fill-opacity="0.9"/>
</svg>
